# xmcd CD database file
#
# Track frame offsets:
#	150
#	25354
#	57860
#	83370
#	112358
#	138771
#	158427
#	181384
#	204490
#	234855
#	257246
#
# Disc length: 3718 seconds
#
# Revision: 0
# Processed by: cddbd v1.5.2PL0 Copyright (c) Steve Scherf et al.
# Submitted via: CDex 1.51
#
DISCID=870e840b
DTITLE=curtis macdonald  -  home on the horizon
DYEAR=2006
DGENRE=New Age
TTITLE0=Coronation
TTITLE1=Nightwatch
TTITLE2=Till There Was You
TTITLE3=Pacific Palisades
TTITLE4=Eloquence Remembered
TTITLE5=Home On The Horizon
TTITLE6=Always By Your Side
TTITLE7=My One True Love
TTITLE8=Heart Of Gold
TTITLE9=Gardens Whisper
TTITLE10=In The Heart Of Light
EXTD=YEAR: 2006
EXTT0=
EXTT1=
EXTT2=
EXTT3=
EXTT4=
EXTT5=
EXTT6=
EXTT7=
EXTT8=
EXTT9=
EXTT10=
PLAYORDER=
